<svg width="499" height="1097" viewBox="0 0 499 1097" fill="none" xmlns="http://www.w3.org/2000/svg">
<path d="M6.4229 87.3236C5.84953 87.9216 5.86944 88.8711 6.46739 89.4445C7.06533 90.0179 8.01487 89.9979 8.58824 89.4L6.4229 87.3236ZM104.637 12.4964L105.092 13.9258L104.637 12.4964ZM4.87621 238.47L6.37239 238.363L4.87621 238.47ZM170.371 248.436L170.792 249.876L170.371 248.436ZM343.754 216.607L343.368 218.056L343.754 216.607ZM484.782 694.464L485.967 695.383L485.996 695.345L486.023 695.305L484.782 694.464ZM394.795 755.004L394.399 753.557L394.795 755.004ZM25.2925 926.589L24.1005 927.5L25.2925 926.589ZM41.6097 943.908L42.5838 942.768L41.6097 943.908ZM225.723 974.72L225.517 976.206L225.723 974.72ZM18.487 1013.12L19.6722 1012.2L18.487 1013.12ZM39.3206 177.706C39.9895 177.217 40.1355 176.279 39.6468 175.61C39.158 174.941 38.2196 174.795 37.5507 175.284L39.3206 177.706ZM194.157 15.804C194.661 16.4616 195.602 16.5864 196.26 16.0826C196.918 15.5788 197.042 14.6373 196.539 13.9796L194.157 15.804ZM338.962 941.597C338.326 941.066 337.38 941.152 336.85 941.788C336.319 942.424 336.404 943.37 337.041 943.901L338.962 941.597ZM39.0804 946.683C39.8284 946.326 40.1461 945.431 39.7899 944.683C39.4338 943.935 38.5388 943.618 37.7908 943.974L39.0804 946.683ZM381.29 1096.28C381.996 1096.71 382.92 1096.49 383.354 1095.79C383.787 1095.08 383.567 1094.16 382.861 1093.72L381.29 1096.28ZM332.581 425.519L331.094 425.715L332.581 425.519ZM400.325 418.512L400.616 417.04L400.325 418.512ZM24.1005 927.5C29.2462 934.236 34.7666 940.037 40.6356 945.049L42.5838 942.768C36.8798 937.896 31.5048 932.25 26.4844 925.679L24.1005 927.5ZM40.6356 945.049C43.646 947.62 48.3471 949.898 54.1717 951.955C60.0292 954.023 67.1587 955.912 75.1348 957.643C91.0889 961.107 110.55 963.965 130.244 966.357C149.944 968.748 169.909 970.677 186.877 972.274C203.869 973.874 217.806 975.138 225.517 976.206L225.928 973.234C218.133 972.155 204.099 970.882 187.158 969.287C170.192 967.69 150.262 965.765 130.606 963.378C110.944 960.991 91.5897 958.146 75.7713 954.712C67.8612 952.995 60.8651 951.137 55.1705 949.126C49.4431 947.104 45.1656 944.972 42.5838 942.768L40.6356 945.049ZM17.3018 1014.04C27.2597 1026.87 42.3596 1037.9 60.27 1047.22C78.1939 1056.56 99.0189 1064.23 120.521 1070.31C163.515 1082.47 209.372 1088.32 240.467 1088.32V1085.32C209.668 1085.32 164.086 1079.51 121.338 1067.42C99.9688 1061.38 79.3476 1053.78 61.6555 1044.56C43.9499 1035.35 29.2641 1024.56 19.6722 1012.2L17.3018 1014.04ZM394.399 753.557C386.153 755.812 372.233 757.612 354.302 759.346C336.403 761.077 314.651 762.73 290.787 764.721C243.092 768.699 187.038 774.016 137.028 783.961C112.021 788.933 88.488 795.069 68.246 802.789C48.019 810.504 30.9837 819.835 19.0534 831.246C7.09022 842.689 0.230125 856.261 0.50813 872.336C0.785106 888.351 8.1445 906.613 24.1005 927.5L26.4844 925.679C10.7376 905.066 3.76937 887.415 3.50768 872.284C3.24702 857.212 9.6372 844.404 21.127 833.414C32.6497 822.393 49.27 813.237 69.315 805.592C89.345 797.953 112.701 791.856 137.613 786.903C187.439 776.995 243.343 771.689 291.036 767.711C314.866 765.723 336.666 764.065 354.591 762.332C372.482 760.602 386.657 758.785 395.191 756.451L394.399 753.557ZM483.596 693.544C460.458 723.387 431.277 743.47 394.399 753.557L395.191 756.451C432.718 746.186 462.445 725.719 485.967 695.383L483.596 693.544ZM8.58824 89.4C39.0419 57.6415 62.5796 27.4559 105.092 13.9258L104.182 11.0671C60.7574 24.8876 36.6047 55.8486 6.4229 87.3236L8.58824 89.4ZM3.38003 238.577C3.94592 246.492 6.52776 252.835 10.7395 257.796C14.9395 262.743 20.6815 266.224 27.4302 268.563C40.8831 273.226 58.5992 273.44 77.0068 271.468C113.861 267.518 154.295 254.695 170.792 249.876L169.951 246.996C153.344 251.847 113.213 264.57 76.6871 268.485C58.4046 270.444 41.2268 270.17 28.4126 265.729C22.0277 263.516 16.7928 260.291 13.0265 255.855C9.27188 251.432 6.89793 245.713 6.37239 238.363L3.38003 238.577ZM170.792 249.876C183.21 246.249 196.966 241.554 211.379 236.796C225.81 232.032 240.926 227.195 256.14 223.251C286.61 215.353 317.254 211.099 343.368 218.056L344.14 215.157C317.247 207.993 285.971 212.419 255.387 220.347C240.074 224.317 224.88 229.18 210.439 233.947C195.98 238.721 182.303 243.388 169.951 246.996L170.792 249.876ZM37.5507 175.284C16.4444 190.706 1.36829 210.441 3.38003 238.577L6.37239 238.363C4.46421 211.676 18.6424 192.815 39.3206 177.706L37.5507 175.284ZM105.092 13.9258C130.682 5.78138 150.391 2.81309 165.009 3.63071C179.624 4.44817 188.969 9.0315 194.157 15.804L196.539 13.9796C190.632 6.26905 180.303 1.48147 165.176 0.635396C150.053 -0.210512 129.954 2.86505 104.182 11.0671L105.092 13.9258ZM225.517 976.206C254.195 980.175 277.206 981.497 295.201 980.902C313.173 980.308 326.236 977.8 334.956 974.038C343.647 970.288 348.372 965.118 348.819 959.065C349.258 953.106 345.475 947.03 338.962 941.597L337.041 943.901C343.288 949.113 346.159 954.337 345.827 958.844C345.501 963.258 342.027 967.72 333.768 971.283C325.539 974.833 312.902 977.316 295.102 977.904C277.324 978.491 254.491 977.187 225.928 973.234L225.517 976.206ZM37.7908 943.974C24.2527 950.42 13.8268 961.049 9.43866 973.57C5.02941 986.15 6.78 1000.47 17.3018 1014.04L19.6722 1012.2C9.73963 999.393 8.21562 986.13 12.2698 974.562C16.3451 962.934 26.1207 952.853 39.0804 946.683L37.7908 943.974ZM240.467 1088.32C251.172 1088.32 263.227 1087.49 275.775 1086.59C288.342 1085.69 301.417 1084.71 314.243 1084.4C339.969 1083.78 364.326 1085.85 381.29 1096.28L382.861 1093.72C365.082 1082.8 339.921 1080.78 314.171 1081.4C301.259 1081.72 288.106 1082.7 275.56 1083.6C262.993 1084.5 251.047 1085.32 240.467 1085.32V1088.32ZM343.368 218.056C351.885 220.325 357.831 224.087 361.837 228.985C365.847 233.888 368.014 240.056 368.745 247.31C370.215 261.899 365.848 280.522 359.486 301.054C353.174 321.421 344.855 343.781 338.781 365.21C332.691 386.694 328.71 407.688 331.094 425.715L334.068 425.322C331.769 407.935 335.598 387.439 341.667 366.028C347.753 344.56 355.944 322.618 362.351 301.942C368.707 281.432 373.267 262.273 371.73 247.009C370.957 239.337 368.637 232.561 364.159 227.085C359.676 221.604 353.133 217.553 344.14 215.157L343.368 218.056ZM382.834 524.565C390.7 538.535 404.19 551.552 419.022 564.309C433.937 577.138 450.167 589.672 463.936 602.884C477.69 616.081 488.719 629.719 493.259 644.543C497.765 659.255 495.936 675.331 483.54 693.622L486.023 695.305C498.861 676.362 500.932 659.352 496.127 643.664C491.357 628.088 479.866 614.011 466.013 600.719C452.176 587.441 435.715 574.71 420.978 562.035C406.157 549.288 393.033 536.564 385.449 523.093L382.834 524.565ZM385.449 523.093C377.745 509.411 370.648 495.188 365.399 481.77C360.142 468.33 356.779 455.798 356.46 445.468C356.141 435.142 358.858 427.315 365.41 422.773C372.046 418.172 383.042 416.626 400.034 419.983L400.616 417.04C383.361 413.631 371.348 415.006 363.701 420.308C355.968 425.669 353.127 434.727 353.461 445.561C353.795 456.392 357.298 469.296 362.605 482.863C367.921 496.451 375.088 510.805 382.834 524.565L385.449 523.093ZM331.094 425.715C333.28 442.244 345.012 451.184 359.417 455.016C373.769 458.835 391.002 457.684 404.961 453.98C411.948 452.126 418.192 449.613 422.893 446.702C427.517 443.837 430.964 440.39 431.757 436.539C432.6 432.444 430.35 428.635 425.366 425.427C420.389 422.225 412.348 419.358 400.616 417.04L400.034 419.983C411.636 422.276 419.24 425.052 423.742 427.95C428.238 430.843 429.301 433.591 428.819 435.934C428.286 438.521 425.768 441.392 421.313 444.151C416.935 446.863 410.986 449.278 404.191 451.081C390.587 454.69 373.904 455.766 360.189 452.117C346.527 448.482 336.044 440.259 334.068 425.322L331.094 425.715Z" fill="#D69957"/>
</svg>
