<svg width="723" height="1593" viewBox="0 0 723 1593" fill="none" xmlns="http://www.w3.org/2000/svg">
<path d="M9.00325 126.495C8.43018 127.094 8.45057 128.043 9.0488 128.616C9.64704 129.189 10.5966 129.169 11.1696 128.571L9.00325 126.495ZM151.131 17.2573L151.587 18.6865L151.131 17.2573ZM6.26835 345.726L7.76453 345.619L6.26835 345.726ZM246.584 360.212L247.005 361.652L246.584 360.212ZM498.354 313.946L497.967 315.395L498.354 313.946ZM703.139 1008.54L704.325 1009.46L704.355 1009.42L704.382 1009.39L703.139 1008.54ZM572.47 1096.54L572.073 1095.1L572.47 1096.54ZM35.9148 1345.95L34.7224 1346.86L35.9148 1345.95ZM59.6092 1371.13L60.5838 1369.99L59.6092 1371.13ZM326.96 1415.92L326.754 1417.4L326.96 1415.92ZM26.0326 1471.73L27.2182 1470.81L26.0326 1471.73ZM55.8855 256.851C56.5542 256.362 56.6998 255.424 56.2107 254.755C55.7216 254.086 54.7831 253.941 54.1145 254.43L55.8855 256.851ZM281.661 21.6507C282.165 22.3086 283.106 22.4338 283.764 21.9303C284.422 21.4269 284.547 20.4854 284.044 19.8275L281.661 21.6507ZM490.961 1368.29C490.326 1367.76 489.38 1367.85 488.849 1368.48C488.318 1369.12 488.403 1370.06 489.039 1370.6L490.961 1368.29ZM55.6453 1374.55C56.3932 1374.19 56.7105 1373.3 56.3541 1372.55C55.9977 1371.8 55.1025 1371.48 54.3547 1371.84L55.6453 1374.55ZM553.214 1592.03C553.92 1592.46 554.844 1592.24 555.278 1591.54C555.712 1590.83 555.492 1589.91 554.786 1589.47L553.214 1592.03ZM482.129 617.614L480.642 617.811L482.129 617.614ZM580.5 607.429L580.791 605.957L580.5 607.429ZM34.7224 1346.86C42.1661 1356.62 50.1493 1365.02 58.6345 1372.27L60.5838 1369.99C52.2636 1362.88 44.4256 1354.63 37.1072 1345.04L34.7224 1346.86ZM58.6345 1372.27C62.909 1375.92 69.6397 1379.2 78.0757 1382.18C86.5446 1385.18 96.8672 1387.92 108.435 1390.43C131.571 1395.46 159.807 1399.61 188.397 1403.08C216.993 1406.56 245.977 1409.36 270.615 1411.68C295.278 1414.01 315.538 1415.85 326.754 1417.4L327.166 1414.43C315.865 1412.86 295.508 1411.02 270.896 1408.7C246.26 1406.37 217.311 1403.58 188.759 1400.11C160.2 1396.63 132.072 1392.5 109.072 1387.5C97.5704 1385 87.3813 1382.29 79.0754 1379.36C70.7367 1376.41 64.4298 1373.28 60.5838 1369.99L58.6345 1372.27ZM24.847 1472.65C39.2239 1491.2 61.0569 1507.17 87.0184 1520.7C112.993 1534.24 143.187 1545.38 174.381 1554.21C236.756 1571.87 303.284 1580.36 348.369 1580.36V1577.36C303.58 1577.36 237.328 1568.91 175.198 1551.32C144.138 1542.53 114.148 1531.46 88.4049 1518.04C62.6484 1504.62 41.2295 1488.89 27.2182 1470.81L24.847 1472.65ZM572.073 1095.1C560.034 1098.39 539.764 1101.01 513.735 1103.53C487.738 1106.05 456.142 1108.45 421.496 1111.35C352.239 1117.13 270.876 1124.86 198.297 1139.3C162.006 1146.52 127.874 1155.44 98.5288 1166.64C69.1982 1177.84 44.555 1191.36 27.3232 1207.86C10.0586 1224.39 0.203747 1243.94 0.6035 1267.08C1.00223 1290.16 11.6 1316.57 34.7224 1346.86L37.1072 1345.04C14.1939 1315.02 3.98653 1289.23 3.60305 1267.03C3.2206 1244.89 12.6065 1226.1 29.3979 1210.03C46.2222 1193.92 70.4504 1180.57 99.5988 1169.44C128.732 1158.32 162.687 1149.45 198.883 1142.24C271.278 1127.83 352.489 1120.12 421.746 1114.34C456.357 1111.45 488.001 1109.04 514.024 1106.52C540.013 1104 560.539 1101.37 572.866 1097.99L572.073 1095.1ZM701.954 1007.63C668.267 1051.12 625.77 1080.39 572.073 1095.1L572.866 1097.99C627.213 1083.11 670.256 1053.45 704.325 1009.46L701.954 1007.63ZM11.1696 128.571C55.3301 82.4714 89.6482 38.4192 151.587 18.6865L150.676 15.8281C87.8248 35.8515 52.8917 80.68 9.00325 126.495L11.1696 128.571ZM4.77216 345.833C5.58472 357.209 9.2866 366.287 15.2989 373.377C21.2996 380.452 29.5229 385.454 39.2406 388.825C58.6315 395.553 84.2356 395.878 110.937 393.013C164.379 387.28 223.025 368.663 247.005 361.652L246.163 358.772C222.073 365.816 163.73 384.333 110.617 390.03C84.0409 392.881 58.9756 392.497 40.2239 385.991C30.8703 382.746 23.1541 378.001 17.5869 371.436C12.0313 364.885 8.53683 356.431 7.76453 345.619L4.77216 345.833ZM247.005 361.652C265.023 356.383 284.98 349.566 305.919 342.647C326.877 335.721 348.845 328.684 370.959 322.945C415.23 311.457 459.871 305.236 497.967 315.395L498.74 312.496C459.864 302.13 414.591 308.524 370.205 320.042C347.991 325.806 325.945 332.869 304.978 339.798C283.993 346.733 264.115 353.523 246.163 358.772L247.005 361.652ZM54.1145 254.43C23.5625 276.776 1.87443 305.264 4.77216 345.833L7.76453 345.619C4.97015 306.498 25.7622 278.884 55.8855 256.851L54.1145 254.43ZM151.587 18.6865C188.787 6.83504 217.494 2.49621 238.835 3.69106C260.172 4.88574 273.965 11.5939 281.661 21.6507L284.044 19.8275C275.629 8.83219 260.853 1.91913 239.003 0.69575C217.156 -0.52745 188.058 3.91888 150.676 15.8281L151.587 18.6865ZM326.754 1417.4C368.371 1423.17 401.746 1425.09 427.827 1424.22C453.886 1423.36 472.758 1419.72 485.31 1414.3C497.832 1408.89 504.41 1401.54 505.031 1393.11C505.645 1384.78 500.359 1376.14 490.961 1368.29L489.039 1370.6C498.17 1378.22 502.547 1386.01 502.039 1392.89C501.539 1399.68 496.21 1406.32 484.12 1411.55C472.06 1416.75 453.614 1420.37 427.728 1421.22C401.864 1422.08 368.667 1420.18 327.166 1414.43L326.754 1417.4ZM54.3547 1371.84C34.8265 1381.15 19.8344 1396.47 13.5333 1414.47C7.21126 1432.53 9.70174 1453.1 24.847 1472.65L27.2182 1470.81C12.6616 1452.03 10.3971 1432.51 16.3648 1415.46C22.3535 1398.36 36.696 1383.58 55.6453 1374.55L54.3547 1371.84ZM348.369 1580.36C363.887 1580.36 381.367 1579.16 399.592 1577.85C417.837 1576.54 436.84 1575.12 455.484 1574.67C492.846 1573.76 528.397 1576.76 553.214 1592.03L554.786 1589.47C529.153 1573.7 492.798 1570.76 455.411 1571.67C436.682 1572.12 417.6 1573.55 399.377 1574.86C381.133 1576.17 363.761 1577.36 348.369 1577.36V1580.36ZM497.967 315.395C510.441 318.722 519.211 324.256 525.135 331.507C531.065 338.764 534.247 347.867 535.317 358.507C537.467 379.866 531.082 407.058 521.845 436.898C512.658 466.572 500.607 498.979 491.784 530.136C482.945 561.349 477.199 591.752 480.642 617.811L483.616 617.418C480.258 591.998 485.852 562.093 494.671 530.954C503.505 499.758 515.428 467.768 524.711 437.785C533.942 407.967 540.52 380.241 538.302 358.207C537.19 347.15 533.855 337.438 527.459 329.608C521.057 321.773 511.691 315.95 498.74 312.496L497.967 315.395ZM555.693 761.25C567.051 781.443 586.556 800.298 608.091 818.839C629.71 837.451 653.33 855.715 673.339 874.935C693.333 894.14 709.453 914.063 716.098 935.781C722.708 957.388 719.998 980.968 701.897 1007.7L704.382 1009.39C722.924 981.998 725.875 957.485 718.966 934.903C712.092 912.433 695.51 892.071 675.417 872.771C655.34 853.486 631.488 835.024 610.049 816.566C588.525 798.035 569.385 779.473 558.307 759.779L555.693 761.25ZM558.307 759.779C547.111 739.874 536.79 719.17 529.153 699.627C521.507 680.063 516.592 661.762 516.125 646.633C515.659 631.507 519.633 619.851 529.414 613.064C539.279 606.217 555.476 604.009 580.209 608.9L580.791 605.957C555.794 601.013 538.58 603.051 527.703 610.599C516.742 618.206 512.645 631.093 513.127 646.726C513.609 662.355 518.663 681.028 526.358 700.719C534.062 720.433 544.453 741.267 555.693 761.25L558.307 759.779ZM480.642 617.811C483.768 641.475 500.522 654.307 521.272 659.833C541.968 665.345 566.868 663.689 587.058 658.327C597.161 655.644 606.161 652.013 612.914 647.826C619.591 643.686 624.386 638.805 625.478 633.495C626.621 627.941 623.622 622.645 616.495 618.054C609.376 613.467 597.798 609.321 580.791 605.957L580.209 608.9C597.086 612.238 608.225 616.295 614.871 620.576C621.508 624.852 623.322 629.086 622.54 632.891C621.707 636.938 617.84 641.242 611.333 645.276C604.903 649.264 596.198 652.796 586.288 655.428C566.454 660.696 542.103 662.277 522.044 656.934C502.039 651.606 486.533 639.492 483.616 617.418L480.642 617.811Z" fill="#D69957"/>
</svg>
