<svg width="24" height="23" viewBox="0 0 24 23" fill="none" xmlns="http://www.w3.org/2000/svg">
<path d="M12 21.197C6.77668 21.197 2.54234 16.9626 2.54234 11.7393H0.924337C0.924337 17.8562 5.88308 22.815 12 22.815V21.197ZM21.4577 11.7393C21.4577 16.9626 17.2233 21.197 12 21.197V22.815C18.1169 22.815 23.0757 17.8562 23.0757 11.7393H21.4577ZM12 2.28166C17.2233 2.28166 21.4577 6.516 21.4577 11.7393H23.0757C23.0757 5.6224 18.1169 0.663656 12 0.663656V2.28166ZM12 0.663656C5.88308 0.663656 0.924337 5.6224 0.924337 11.7393H2.54234C2.54234 6.516 6.77668 2.28166 12 2.28166V0.663656ZM12.809 22.006V10.2727H11.191V22.006H12.809ZM14.9333 8.14832H15.6667V6.53032H14.9333V8.14832ZM12.809 10.2727C12.809 9.09942 13.7601 8.14832 14.9333 8.14832V6.53032C12.8665 6.53032 11.191 8.20582 11.191 10.2727H12.809ZM8.33334 14.015H15.6667V12.397H8.33334V14.015Z" fill="#D69957"/>
</svg>
