<svg width="24" height="23" viewBox="0 0 24 23" fill="none" xmlns="http://www.w3.org/2000/svg">
<path d="M7.6 2.28166H16.4V0.663656H7.6V2.28166ZM21.4577 7.33932V16.1393H23.0757V7.33932H21.4577ZM16.4 21.197H7.6V22.815H16.4V21.197ZM2.54234 16.1393V7.33932H0.924337V16.1393H2.54234ZM7.6 21.197C4.80673 21.197 2.54234 18.9326 2.54234 16.1393H0.924337C0.924337 19.8262 3.91313 22.815 7.6 22.815V21.197ZM21.4577 16.1393C21.4577 18.9326 19.1933 21.197 16.4 21.197V22.815C20.0869 22.815 23.0757 19.8262 23.0757 16.1393H21.4577ZM16.4 2.28166C19.1933 2.28166 21.4577 4.54605 21.4577 7.33932H23.0757C23.0757 3.65245 20.0869 0.663656 16.4 0.663656V2.28166ZM7.6 0.663656C3.91314 0.663656 0.924337 3.65245 0.924337 7.33932H2.54234C2.54234 4.54605 4.80673 2.28166 7.6 2.28166V0.663656ZM12 15.3303C10.0167 15.3303 8.409 13.7226 8.409 11.7393H6.791C6.791 14.6162 9.12315 16.9483 12 16.9483V15.3303ZM15.591 11.7393C15.591 13.7226 13.9833 15.3303 12 15.3303V16.9483C14.8769 16.9483 17.209 14.6162 17.209 11.7393H15.591ZM12 8.14832C13.9833 8.14832 15.591 9.75607 15.591 11.7393H17.209C17.209 8.86247 14.8769 6.53032 12 6.53032V8.14832ZM12 6.53032C9.12315 6.53032 6.791 8.86247 6.791 11.7393H8.409C8.409 9.75607 10.0167 8.14832 12 8.14832V6.53032ZM17.1333 6.68166H18.6V5.06366H17.1333V6.68166Z" fill="#D69957"/>
</svg>
