<svg width="24" height="20" viewBox="0 0 24 20" fill="none" xmlns="http://www.w3.org/2000/svg">
<path d="M22.235 0.939209L23.0422 0.88569C23.0207 0.561166 22.8069 0.281078 22.4996 0.174704C22.1922 0.0683287 21.8511 0.156351 21.6335 0.398144L22.235 0.939209ZM21.5796 5.27893C21.5796 4.83214 21.2174 4.46993 20.7706 4.46993C20.3238 4.46993 19.9616 4.83214 19.9616 5.27893H21.5796ZM11.9842 5.39948H11.1752V5.39948L11.9842 5.39948ZM11.9842 6.80588L12.7932 6.80588V6.80587L11.9842 6.80588ZM1.73334 17.0725V16.2635C1.37694 16.2635 1.06253 16.4968 0.959134 16.8378C0.855735 17.1789 0.987709 17.5474 1.28411 17.7453L1.73334 17.0725ZM3.19774 0.939209L3.95537 0.655535C3.84249 0.354043 3.56159 0.148175 3.2401 0.131319C2.91861 0.114462 2.61772 0.289827 2.47393 0.57786L3.19774 0.939209ZM9.05535 14.1392L9.62785 14.7108C9.82583 14.5125 9.9071 14.2259 9.84268 13.9532C9.77826 13.6805 9.57732 13.4606 9.31154 13.3718L9.05535 14.1392ZM19.6502 2.36683L19.0501 2.90942L19.3416 3.23179L19.7714 3.16671L19.6502 2.36683ZM21.4278 0.992728C21.5031 2.1297 21.4325 2.81019 21.2527 3.31713C21.0788 3.80715 20.775 4.21448 20.2109 4.75509L21.3303 5.92333C21.9762 5.30438 22.4827 4.68934 22.7776 3.85807C23.0665 3.0437 23.123 2.10397 23.0422 0.88569L21.4278 0.992728ZM21.5796 6.34753V5.27893H19.9616V6.34753H21.5796ZM11.1752 5.39948L11.1752 6.80588L12.7932 6.80587L12.7932 5.39948L11.1752 5.39948ZM11.1752 6.80587L11.1752 7.53921L12.7932 7.53921L12.7932 6.80588L11.1752 6.80587ZM16.4375 0.130209C13.53 0.130209 11.1752 2.49052 11.1752 5.39948H12.7932C12.7932 3.38176 14.426 1.74821 16.4375 1.74821V0.130209ZM19.9616 6.34753C19.9616 12.6352 14.8726 17.7302 8.59771 17.7302V19.3482C15.7686 19.3482 21.5796 13.5264 21.5796 6.34753H19.9616ZM2.44011 1.22288C3.24373 3.3692 6.25848 7.61488 11.9842 7.61488V5.99688C7.16614 5.99688 4.61615 2.42032 3.95537 0.655535L2.44011 1.22288ZM2.47393 0.57786C0.931423 3.66763 0.689367 6.67423 1.81639 9.2396C2.9406 11.7986 5.3563 13.7572 8.79917 14.9066L9.31154 13.3718C6.16459 12.3212 4.18708 10.6132 3.29774 8.58881C2.41121 6.57086 2.53525 4.07745 3.92156 1.30056L2.47393 0.57786ZM8.48286 13.5676C7.60938 14.4424 4.97253 16.2635 1.73334 16.2635V17.8815C5.52328 17.8815 8.54882 15.7915 9.62785 14.7108L8.48286 13.5676ZM20.2503 1.82425C19.3107 0.78512 17.9501 0.130209 16.4375 0.130209V1.74821C17.4733 1.74821 18.4041 2.19489 19.0501 2.90942L20.2503 1.82425ZM19.7714 3.16671C20.9048 2.99505 22.0087 2.40032 22.8364 1.48027L21.6335 0.398144C21.0466 1.05058 20.2777 1.45357 19.5291 1.56696L19.7714 3.16671ZM1.28411 17.7453C3.71209 19.3665 6.25812 19.3482 8.59771 19.3482V17.7302C6.20465 17.7302 4.1478 17.7119 2.18257 16.3997L1.28411 17.7453Z" fill="#D69957"/>
</svg>
