<svg width="24" height="20" viewBox="0 0 24 20" fill="none" xmlns="http://www.w3.org/2000/svg">
<path d="M3.36261 17.4218L3.1931 18.2129H3.1931L3.36261 17.4218ZM20.6374 17.4218L20.8069 18.2129L20.6374 17.4218ZM20.6374 2.05689L20.8069 1.26585V1.26585L20.6374 2.05689ZM3.36261 2.05689L3.53212 2.84794L3.36261 2.05689ZM10.5333 6.80602L10.9821 6.13289C10.7338 5.9674 10.4147 5.95197 10.1516 6.09275C9.88855 6.23353 9.72434 6.50767 9.72434 6.80602H10.5333ZM10.5333 12.6727H9.72434C9.72434 12.971 9.88855 13.2452 10.1516 13.386C10.4147 13.5267 10.7338 13.5113 10.9821 13.3458L10.5333 12.6727ZM14.9333 9.73936L15.3821 10.4125C15.6072 10.2624 15.7423 10.0098 15.7423 9.73936C15.7423 9.46887 15.6072 9.21627 15.3821 9.06623L14.9333 9.73936ZM0.924337 4.07228V15.4064H2.54234V4.07228H0.924337ZM23.0757 15.4064V4.07229H21.4577V15.4064H23.0757ZM3.1931 18.2129C8.99847 19.4569 15.0015 19.4569 20.8069 18.2129L20.4679 16.6308C14.886 17.8269 9.11402 17.8269 3.53212 16.6308L3.1931 18.2129ZM20.8069 1.26585C15.0015 0.0218437 8.99847 0.0218436 3.1931 1.26585L3.53212 2.84794C9.11402 1.65182 14.886 1.65182 20.4679 2.84794L20.8069 1.26585ZM23.0757 4.07229C23.0757 2.7189 22.1302 1.54942 20.8069 1.26585L20.4679 2.84794C21.0452 2.97165 21.4577 3.48185 21.4577 4.07229H23.0757ZM21.4577 15.4064C21.4577 15.9969 21.0452 16.5071 20.4679 16.6308L20.8069 18.2129C22.1302 17.9293 23.0757 16.7598 23.0757 15.4064H21.4577ZM0.924337 15.4064C0.924337 16.7598 1.86976 17.9293 3.1931 18.2129L3.53212 16.6308C2.95479 16.5071 2.54234 15.9969 2.54234 15.4064H0.924337ZM2.54234 4.07228C2.54234 3.48185 2.95479 2.97165 3.53212 2.84794L3.1931 1.26585C1.86976 1.54942 0.924337 2.7189 0.924337 4.07228H2.54234ZM9.72434 6.80602V12.6727H11.3423V6.80602H9.72434ZM10.9821 13.3458L15.3821 10.4125L14.4846 9.06623L10.0846 11.9996L10.9821 13.3458ZM15.3821 9.06623L10.9821 6.13289L10.0846 7.47915L14.4846 10.4125L15.3821 9.06623Z" fill="#D69957"/>
</svg>
